<?xml version="1.0" encoding="utf-8"?>
<svg version="1.0" width="500.000000pt" height="500.000000pt" viewBox="0 0 500.000000 500.000000" preserveAspectRatio="xMidYMid meet" xmlns="http://www.w3.org/2000/svg">
  <g transform="translate(0.000000,500.000000) scale(0.100000,-0.100000)" fill="#000000" stroke="none">
    <path d="M1827 3848 c-23 -8 -26 -14 -20 -31 4 -12 6 -31 6 -42 -1 -20 -334 -849 -368 -915 -21 -43 -74 -100 -92 -100 -7 0 -13 -4 -13 -10 0 -6 35 -10 85 -10 87 0 100 6 65 28 -40 24 -26 93 60 300 l42 102 242 0 241 0 19 -48 c11 -26 26 -62 34 -81 l14 -34 24 43 25 43 -158 384 c-87 210 -162 383 -168 382 -5 0 -23 -5 -38 -11z m122 -374 c62 -151 111 -277 109 -280 -3 -2 -106 -3 -230 -2 l-226 3 111 278 c61 152 113 277 116 277 3 0 57 -124 120 -276z" style="fill: rgb(175, 141, 98);"/>
    <path d="M2421 3205 c-164 -37 -251 -131 -251 -273 0 -143 68 -211 311 -312 229 -95 303 -158 324 -272 15 -78 -45 -178 -133 -223 -51 -25 -134 -35 -204 -24 -129 20 -217 87 -289 220 l-40 74 6 -99 c3 -55 10 -105 15 -111 6 -7 41 -26 79 -44 156 -72 337 -80 457 -21 37 18 84 50 105 72 l39 40 0 92 c0 116 -13 164 -53 199 -24 21 -29 30 -19 36 20 12 -65 63 -215 127 -217 94 -239 112 -292 238 -30 71 -31 79 -19 119 39 129 209 190 381 137 75 -23 152 -85 193 -157 15 -24 28 -42 30 -41 1 2 0 38 -3 81 l-6 78 -38 20 c-95 48 -270 69 -378 44z" style="fill: rgb(175, 141, 98);"/>
    <path d="M2790 2571 c0 -5 9 -13 21 -16 11 -4 29 -26 40 -48 17 -39 19 -73 19 -498 0 -472 -3 -512 -41 -524 -44 -14 -13 -25 71 -25 90 0 109 7 68 25 -12 6 -31 23 -42 38 -20 28 -21 40 -23 480 -2 295 1 447 7 437 5 -8 99 -161 208 -340 109 -179 205 -325 212 -325 7 0 99 140 204 310 105 171 201 326 214 345 l22 35 -2 -473 -3 -474 -27 -23 c-16 -13 -28 -27 -28 -30 0 -3 47 -5 105 -5 58 0 105 2 105 5 0 3 -12 17 -27 30 l-28 23 -3 472 c-2 447 -2 473 17 514 11 25 28 47 40 51 42 13 20 26 -41 23 l-61 -3 -218 -355 c-120 -195 -222 -356 -227 -358 -5 -1 -108 159 -228 357 l-219 360 -67 1 c-38 0 -68 -4 -68 -9z" style="fill: rgb(175, 141, 98);"/>
  </g>
</svg>